<?xml version="1.0" encoding="UTF-8"?><svg id="Aliens" xmlns="http://www.w3.org/2000/svg" viewBox="0 0 261.45 150.89"><defs><style>.cls-1{fill:#f18f24;}.cls-2{fill:none;}.cls-3{fill:#49c8f3;}</style></defs><path class="cls-2" d="m149.05,76.05c0-2.15-1.86-3.9-4.15-3.9s-4.15,1.75-4.15,3.9,1.86,3.9,4.15,3.9,4.15-1.75,4.15-3.9Z"/><path class="cls-2" d="m172.8,89.01c0-2.15-1.86-3.9-4.15-3.9s-4.15,1.75-4.15,3.9,1.86,3.9,4.15,3.9,4.15-1.75,4.15-3.9Z"/><path class="cls-2" d="m4.15,38.24c-2.29,0-4.15,1.75-4.15,3.9s1.86,3.9,4.15,3.9,4.15-1.75,4.15-3.9-1.86-3.9-4.15-3.9Z"/><path class="cls-2" d="m26.49,41.5c2.29,0,4.15-1.75,4.15-3.9s-1.86-3.9-4.15-3.9-4.15,1.75-4.15,3.9,1.86,3.9,4.15,3.9Z"/><ellipse class="cls-2" cx="49.8" cy="31.47" rx="4.15" ry="3.9"/><path class="cls-3" d="m231.7,136.95c2.9-2.91,27.47-4.03,29.59-10.1,2.14-6.11-17.5-37.22-29.43-38.51-5.29-.56-14.82-1.34-25.41-3.47h0c-2.67-.22-11.78-2.6-11.78-2.6,0,0-7.69-2.74-9.92-4.38,0-.01-.02-.03-.04-.04-8.42-4.51-18.24-11.46-22.9-13.21-13.3-4.99-44.37,7.38-44.6,11.13-.24,3.82-.57,6.05,3.9,12.29,4.68,6.54,9.76,11.1,11.3,12.09s4.48-2.02,4.48-2.02c-.41,6.46-7.84,16.98-6.39,19.29,1.44,2.31,15.9-5.06,15.9-5.06l26.89,14.6s2.74,0,5.78-5.78-3.9,11.86-3.76,15.04c.15,3.18,4.53,3.47,4.53,3.47l3.71-8.53,29.35,5.93s1.73-.29,2.02-4.19,7.81,13.74,11.86,17.35c3.92,3.72,1.59-9.97,4.92-13.3h0Zm-82.65-60.91c0,2.15-1.86,3.9-4.15,3.9s-4.15-1.75-4.15-3.9,1.86-3.9,4.15-3.9,4.15,1.75,4.15,3.9Zm23.75,12.96c0,2.15-1.86,3.9-4.15,3.9s-4.15-1.75-4.15-3.9,1.86-3.9,4.15-3.9,4.15,1.75,4.15,3.9Zm21.58,9.81c0,2.15-1.86,3.9-4.15,3.9s-4.15-1.75-4.15-3.9,1.86-3.9,4.15-3.9,4.15,1.75,4.15,3.9Zm23.31,6.13c0,2.15-1.86,3.9-4.15,3.9s-4.15-1.75-4.15-3.9,1.86-3.9,4.15-3.9,4.15,1.75,4.15,3.9Zm14.04,4.56c0-2.15,1.86-3.9,4.15-3.9s4.15,1.75,4.15,3.9-1.86,3.9-4.15,3.9-4.15-1.75-4.15-3.9Z"/><path class="cls-3" d="m241.52,83.09v.02c.07.5,4.05.8,4.05,1.01s1.38-9.69.8-18.22-6.63-18.45-8.53-21.9c-6.65-12.18-17.93-17.28-19.16-17.71-1.22-.43.15-5.93.8-9.76s5.85-12.58,3.61-14.6c-2.24-2.02-5.85-2.28-6.72-1.59s-.29,1.59-.22,8.75c.08,7.15-5.49,14.6-5.49,14.6,0,0-20.99-5.75-34.77,8.89-8.46,7.59-11.71,19.55-10.7,21.33s.65,1.72,3.4,1.94c2.75.21,4.72-4.96,7.11-8.86,2.38-3.9,6.53-8.72,16.96-13.19s25.14.88,28.34,2.96c1.25,2.06-2.46,2.25-2.53,2.39-.07.14,4.41,9.68,6.65,15.54,2.24,5.85,2.96,28.84,2.96,28.84,0,0,6-.8,6.22-.51.27-4.6.16-10.83-1.37-18-1.65-7.73-4.37-13.84-6.65-18.07l-4.12-5.06s6.58-.15,14.31,15.61c5.28,11.35,4.99,25.08,5.06,25.59h-.01Z"/><path class="cls-1" d="m194.65,82.27h0s9.11,2.38,11.78,2.6h0c2.32-.55,6.87-11.55,7.48-15.03.39-2.23-.22-9.19-4.47-13.62l.07.06,4.41-5.88c.19.04.4.06.61.06,1.79,0,3.25-1.33,3.25-2.96s-1.46-2.96-3.25-2.96-3.25,1.32-3.25,2.96c0,.71.28,1.35.74,1.85h-.03c-.4,1.77-4.07,5.52-4.07,5.52l.07.06c-2.29-1.74-5.39-2.81-9.56-2.5-.37.04-.74.11-1.11.17-.29-.78-1.82-4.92-1.52-6.53h-.03c.62-.29,1.14-.77,1.42-1.42.64-1.5-.18-3.29-1.83-4-1.66-.7-3.52-.06-4.16,1.45-.64,1.5.18,3.29,1.83,4,.2.08.39.14.59.19l1.66,6.77c-7.17,2.06-12.31,8.37-12.31,16.79,0,2.88-.46,6.35,1.72,8.01,0,.01.02.03.04.04,2.23,1.64,9.92,4.38,9.92,4.38h0Zm1.68-12.15c-.14,1.01-2.96.31-4.75-1.34-1.79-1.65-2.19-4.56-1.72-4.63s2.96-.31,4.75,1.34c1.79,1.65,1.87,3.62,1.72,4.63Zm9.18,2.46c-2.3.8-4.07-.06-4.89-.67-.82-.6,1.13-2.75,3.43-3.55s5.05.22,4.89.67-1.13,2.75-3.43,3.55Z"/><path d="m205.5,72.59c2.3-.79,3.27-3.1,3.43-3.55s-2.59-1.47-4.89-.67c-2.3.79-4.25,2.94-3.43,3.55.81.6,2.59,1.46,4.89.67Z"/><path d="m196.32,70.13c.15-1.01.07-2.98-1.72-4.63-1.78-1.65-4.28-1.41-4.75-1.34-.48.07-.07,2.98,1.72,4.63,1.78,1.65,4.6,2.35,4.75,1.34Z"/></svg>