<?xml version="1.0" encoding="UTF-8"?><svg id="Aliens" xmlns="http://www.w3.org/2000/svg" viewBox="0 0 430.75 316.24"><defs><style>.cls-1{fill:#f18f24;}.cls-2{fill:none;}.cls-3{fill:#f48220;}.cls-4{fill:#49c8f3;}</style></defs><path class="cls-2" d="m138.96,188.22c-1.96-10.51-6.32-15.01-9.23-16.9v.08s1.95,39.88,1.95,39.88c0,0,1.09-.58,2.57-1.84,3.32-4.01,6.64-10.83,4.71-21.22Z"/><path class="cls-2" d="m116.55,79.97c2.29,0,4.15-1.75,4.15-3.9s-1.86-3.9-4.15-3.9-4.15,1.75-4.15,3.9,1.86,3.9,4.15,3.9Z"/><path class="cls-2" d="m92.8,92.93c2.29,0,4.15-1.75,4.15-3.9s-1.86-3.9-4.15-3.9-4.15,1.75-4.15,3.9,1.86,3.9,4.15,3.9Z"/><path class="cls-2" d="m25.57,105.61c-2.29,0-4.15,1.75-4.15,3.9s1.86,3.9,4.15,3.9,4.15-1.75,4.15-3.9-1.86-3.9-4.15-3.9Z"/><path class="cls-2" d="m47.91,108.87c2.29,0,4.15-1.75,4.15-3.9s-1.86-3.9-4.15-3.9-4.15,1.75-4.15,3.9,1.86,3.9,4.15,3.9Z"/><ellipse class="cls-2" cx="71.22" cy="98.84" rx="4.15" ry="3.9"/><path class="cls-4" d="m34.67,150.27c4.05-3.61,11.57-21.25,11.86-17.35.29,3.9,2.02,4.19,2.02,4.19l29.35-5.93,3.71,8.53s4.38-.29,4.53-3.47c.14-3.18-6.8-20.82-3.76-15.04,3.04,5.78,5.78,5.78,5.78,5.78l26.89-14.6s14.46,7.37,15.9,5.06c1.45-2.31-5.98-12.83-6.39-19.29,0,0,2.94,3.01,4.48,2.02s6.62-5.55,11.3-12.09c4.47-6.24,4.14-8.47,3.9-12.29-.23-3.75-31.3-16.12-44.6-11.13-4.66,1.75-14.48,8.7-22.9,13.21-.02.01-.03.03-.04.04-2.23,1.64-9.92,4.38-9.92,4.38,0,0-9.11,2.38-11.78,2.6,0,0,0,0,0,0-10.59,2.13-20.12,2.91-25.41,3.47C17.66,89.65-1.98,120.76.16,126.87c2.12,6.07,26.69,7.19,29.59,10.1,3.33,3.33,1,17.02,4.92,13.3Zm81.88-78.11c2.29,0,4.15,1.75,4.15,3.9s-1.86,3.9-4.15,3.9-4.15-1.75-4.15-3.9,1.86-3.9,4.15-3.9Zm-23.75,12.96c2.29,0,4.15,1.75,4.15,3.9s-1.86,3.9-4.15,3.9-4.15-1.75-4.15-3.9,1.86-3.9,4.15-3.9Zm-21.58,9.81c2.29,0,4.15,1.75,4.15,3.9s-1.86,3.9-4.15,3.9-4.15-1.75-4.15-3.9,1.86-3.9,4.15-3.9Zm-23.31,6.13c2.29,0,4.15,1.75,4.15,3.9s-1.86,3.9-4.15,3.9-4.15-1.75-4.15-3.9,1.86-3.9,4.15-3.9Zm-22.34,12.36c-2.29,0-4.15-1.75-4.15-3.9s1.86-3.9,4.15-3.9,4.15,1.75,4.15,3.9-1.86,3.9-4.15,3.9Z"/><path class="cls-4" d="m19.92,83.11c.07-.51-.22-14.24,5.06-25.59,7.73-15.76,14.31-15.61,14.31-15.61l-4.12,5.06c-2.28,4.23-5,10.34-6.65,18.07-1.53,7.17-1.64,13.4-1.37,18,.22-.29,6.22.51,6.22.51,0,0,.72-22.99,2.96-28.84,2.24-5.86,6.72-15.4,6.65-15.54-.07-.14-3.78-.33-2.53-2.39,3.2-2.08,17.91-7.43,28.34-2.96s14.58,9.29,16.96,13.19c2.39,3.9,4.36,9.07,7.11,8.86,2.75-.22,2.39-.16,3.4-1.94,1.01-1.78-2.24-13.74-10.7-21.33-13.78-14.64-34.77-8.89-34.77-8.89,0,0-5.57-7.45-5.49-14.6.07-7.16.65-8.06-.22-8.75-.87-.69-4.48-.43-6.72,1.59s2.96,10.77,3.61,14.6c.65,3.83,2.02,9.33.8,9.76-1.23.43-12.51,5.53-19.16,17.71-1.9,3.45-7.95,13.37-8.53,21.9-.58,8.53.8,18.43.8,18.22s3.98-.51,4.05-1.01Z"/><path class="cls-3" d="m37.09,183.63c-.11-4.45-1.73-7.16-6.4-8.35-4.66-1.19-6.94,3.04-6.94,3.04l.07,1.72c1.15-.92,2.89-1.69,5.24-1.09,4.66,1.19,6.29,3.9,6.4,8.35.11,4.45,2.39,58.66,2.39,58.66l19.84-.76-.14-3.6-18.08.69s-2.28-54.22-2.39-58.66Z"/><path class="cls-3" d="m6.51,243.16c.09.28-2.36-59.41-3-74.73l-1.77.11s3.25,78.61,3.14,78.29c-.11-.33,19.84,0,19.84,0l-.15-3.69c-4.88-.07-18.16-.24-18.07.03Z"/><path class="cls-3" d="m276.59,232.9c.09.28-2.34-58.78-2.99-74.48l-1.98.12s3.25,78.61,3.14,78.29c-.11-.33,19.84,0,19.84,0l-.16-3.95c-5.04-.07-17.95-.23-17.86.03Z"/><path class="cls-3" d="m307.16,173.37c-.11-4.45-1.73-7.16-6.4-8.35-4.66-1.19-6.94,3.04-6.94,3.04l.07,1.83c1.15-.85,2.82-1.51,5.04-.94,4.66,1.19,6.29,3.9,6.4,8.35.11,4.45,2.39,58.66,2.39,58.66l19.84-.76-.15-3.85-17.87.68s-2.28-54.22-2.39-58.66Z"/><path class="cls-4" d="m57.04,181.14s-5.2-16.7-18.43-17.35c-9.22-1.14-14.91,3.52-14.91,3.52l-.43-3.62-19.9,1.18s.05,1.3.15,3.56c.63,15.33,3.09,75.02,3,74.73-.09-.27,13.19-.1,18.07-.03,1.1.02,1.77.03,1.77.03l-2.53-63.12-.07-1.72s2.28-4.23,6.94-3.04c4.66,1.19,6.29,3.9,6.4,8.35s2.39,58.66,2.39,58.66l18.08-.69,1.76-.07-2.28-60.4Z"/><path class="cls-4" d="m327.12,170.87s-5.2-16.7-18.43-17.35c-9.22-1.14-14.91,3.52-14.91,3.52l-.43-3.62-19.9,1.18s.06,1.4.16,3.81c.65,15.71,3.08,74.77,2.99,74.48-.09-.26,12.82-.1,17.86-.03,1.22.02,1.98.03,1.98.03l-2.53-63.01-.07-1.83s2.28-4.23,6.94-3.04c4.66,1.19,6.29,3.9,6.4,8.35.11,4.45,2.39,58.66,2.39,58.66l17.87-.68,1.97-.08-2.28-60.4Z"/><path class="cls-3" d="m87.29,207.31h13.98v-2.93h-14.23c.07.99.15,1.96.26,2.93Z"/><path class="cls-3" d="m91.5,176.74c2.22-2.93,5.04-5.15,8.59-6.34l-.05-2.14c-3.68,1.75-6.48,4.71-8.54,8.48Z"/><path class="cls-3" d="m95.68,240.2c-16.93,0-30.65-17.87-30.65-39.9,0-10,2.63-18.06,6.23-24.17-4.53,6.36-8.12,15.41-8.12,27.1,0,22.04,13.72,39.9,30.65,39.9,3.12,0,6.13.55,8.96-.58v-2.41c-2.27.39-4.63.06-7.07.06Z"/><path class="cls-3" d="m365.32,229.54c-16.93,0-30.65-17.87-30.65-39.9,0-10.57,2.94-18.98,6.86-25.2-5.06,6.4-9.28,15.96-9.28,28.62,0,22.04,13.72,39.9,30.65,39.9,3.12,0,6.13.55,8.96-.58v-2.83c-2.11.26-4.3-.02-6.55-.02Z"/><path class="cls-3" d="m356.99,197.14h13.4v-3.42h-13.71c.08,1.16.18,2.3.31,3.42Z"/><path class="cls-3" d="m361.43,165.55c2.09-2.42,4.65-4.26,7.78-5.31l-.06-2.34c-3.24,1.69-5.8,4.33-7.72,7.66Z"/><path class="cls-4" d="m87.29,207.31c-.1-.97-.19-1.94-.26-2.93h16.13v-7.7h-16.26c.24-7.57,1.67-14.58,4.6-19.94,2.06-3.77,4.86-6.72,8.54-8.48.62-.3,1.27-.57,1.95-.79l-.16-6.45c-1.87-.47-8.51-1.19-16.27,1.68-4.24,1.57-9.97,6.07-14.3,13.42-3.6,6.1-6.23,14.17-6.23,24.17,0,22.04,13.72,39.9,30.65,39.9,2.44,0,4.8.33,7.07-.06.64-.11,1.27-.27,1.89-.51v-6.43c-10.91-2.16-15.95-12.91-17.35-25.88Z"/><path class="cls-4" d="m356.99,197.14c-.13-1.13-.24-2.27-.31-3.42h16.13v-7.7h-16.26c.25-7.82,1.75-15.04,4.89-20.47,1.92-3.33,4.48-5.97,7.72-7.66.79-.41,1.6-.79,2.48-1.08l-.16-6.45c-1.87-.47-8.51-1.19-16.27,1.68-4.03,1.49-9.42,5.65-13.67,12.39-3.92,6.22-6.86,14.63-6.86,25.2,0,22.04,13.72,39.9,30.65,39.9,2.25,0,4.44.28,6.55.02.82-.1,1.63-.28,2.42-.59v-6.43c-10.77-2.13-15.82-12.63-17.3-25.38Z"/><path class="cls-3" d="m131.58,219.92l.1,2.72c7.74-.49,14.65-4.2,19.53-9.87-5.01,4.48-11.49,7.19-18.58,7.19-.35,0-.7-.02-1.05-.04Z"/><path class="cls-3" d="m129.57,167.27l.15,4.05c2.91,1.89,7.27,6.39,9.23,16.9,1.93,10.39-1.39,17.21-4.71,21.22,3.72-3.17,9.89-10.63,7.41-23.96-3.07-16.52-12.08-18.2-12.09-18.2Z"/><polygon class="cls-3" points="109.37 163.25 106.57 163.33 109.53 242.19 129.59 241.43 129.49 238.79 112.24 239.44 109.37 163.25"/><path class="cls-4" d="m132.63,159.67c-.98,0-2.38.26-3.33.36l-20.02.55.1,2.67,2.86,76.19,17.26-.65,2.8-.11-.61-16.04-.1-2.72c.35.02.7.04,1.05.04,7.09,0,13.58-2.71,18.58-7.19,6.18-5.53,10.11-13.76,10.11-22.96,0-16.65-12.85-30.14-28.69-30.14Zm1.62,49.77c-1.48,1.26-2.57,1.84-2.57,1.84l-1.95-39.88v-.08s-.16-4.05-.16-4.05c0,0,9.01,1.69,12.09,18.2,2.48,13.34-3.69,20.8-7.41,23.96Z"/><polygon class="cls-3" points="196.8 168.26 201.98 168.07 201.98 164.76 196.78 164.95 196.8 168.26"/><polygon class="cls-3" points="174.48 165.76 164.14 166.14 164.07 162 161.32 162.1 161.45 169.55 171.79 169.17 174.57 240.36 194.49 239.74 194.47 236.41 177.26 236.95 174.48 165.76"/><polygon class="cls-4" points="174.19 158.22 174.19 158.31 164.01 158.69 164.07 162 164.14 166.14 174.48 165.76 177.26 236.95 194.47 236.41 197.18 236.33 196.8 168.26 196.78 164.95 201.98 164.76 204.68 164.66 204.68 157.15 191.75 157.64 174.19 158.22"/><path class="cls-3" d="m248.09,230.86s-11.1,5.2-16.58,3.49-16.82-5.27-17.34-23.03l-1.52-51.54-2.46.05,1.61,54.84c.52,17.76,11.87,21.31,17.34,23.03s16.58-3.49,16.58-3.49l.12,3.49,20.24-.8-.12-3.26-17.76.7-.12-3.49Z"/><path class="cls-3" d="m247.72,219.83l-2.09-61.19-2.47.08,2.17,63.65c1.53-1.11,2.39-2.54,2.39-2.54Z"/><path class="cls-4" d="m265.59,154.73l-20.07.62.11,3.28,2.09,61.19s-.85,1.43-2.39,2.54c-1.56,1.13-3.82,1.93-6.61.57-4.07-2.55-4.18-12.18-4.18-12.18l-1.92-54.72-20.07.43.1,3.31,1.52,51.54c.52,17.76,11.87,21.31,17.34,23.03s16.58-3.49,16.58-3.49l.12,3.49,17.76-.7,2.48-.1-2.86-78.81Z"/><path class="cls-1" d="m66.8,82.3s7.69-2.74,9.92-4.38c.02-.01.03-.03.04-.04,2.18-1.66,1.72-5.13,1.72-8.01,0-8.42-5.14-14.73-12.31-16.79l1.66-6.77c.2-.05.39-.11.59-.19,1.65-.71,2.47-2.5,1.83-4-.64-1.51-2.5-2.15-4.16-1.45-1.65.71-2.47,2.5-1.83,4,.28.65.8,1.13,1.42,1.42h-.03c.3,1.61-1.23,5.75-1.52,6.53-.37-.06-.74-.13-1.11-.17-4.17-.31-7.27.76-9.56,2.5l.07-.06s-3.67-3.75-4.07-5.52h-.03c.46-.5.74-1.14.74-1.85,0-1.64-1.46-2.96-3.25-2.96s-3.25,1.33-3.25,2.96,1.46,2.96,3.25,2.96c.21,0,.42-.02.61-.06l4.41,5.88.07-.06c-4.25,4.43-4.86,11.39-4.47,13.62.61,3.48,5.16,14.48,7.48,15.03,0,0,0,0,0,0,2.67-.22,11.78-2.6,11.78-2.6Zm.04-16.78c1.79-1.65,4.28-1.41,4.75-1.34.47.07.07,2.98-1.72,4.63-1.79,1.65-4.61,2.35-4.75,1.34-.15-1.01-.07-2.98,1.72-4.63Zm-14.33,3.54c-.16-.45,2.59-1.47,4.89-.67,2.3.8,4.25,2.95,3.43,3.55-.82.61-2.59,1.47-4.89.67s-3.27-3.1-3.43-3.55Z"/><path d="m60.84,71.94c.82-.61-1.13-2.76-3.43-3.55-2.3-.8-5.05.22-4.89.67s1.13,2.76,3.43,3.55,4.08-.07,4.89-.67Z"/><path d="m69.88,68.81c1.79-1.65,2.2-4.56,1.72-4.63-.47-.07-2.97-.31-4.75,1.34-1.79,1.65-1.87,3.62-1.72,4.63.15,1.01,2.97.31,4.75-1.34Z"/></svg>